<?xml version="1.0" encoding="utf-8"?>
<!-- Generator: Adobe Illustrator 16.0.3, SVG Export Plug-In . SVG Version: 6.00 Build 0)  -->
<!DOCTYPE svg PUBLIC "-//W3C//DTD SVG 1.1//EN" "http://www.w3.org/Graphics/SVG/1.1/DTD/svg11.dtd">
<svg version="1.1" xmlns="http://www.w3.org/2000/svg" xmlns:xlink="http://www.w3.org/1999/xlink" x="0px" y="0px"
	 width="83.432px" height="57.333px" viewBox="0 0 83.432 57.333" enable-background="new 0 0 83.432 57.333" xml:space="preserve">
<g id="OBJECTS">
	<g>
		<path fill="#FFDAB6" d="M3.456,21.349c-5.67,3.509-3.416,23.198,0,22.97c4.851,2.128,1.781,4.313,9.783,7.798
			c4.426,1.937,8.886,2.659,13.564,2.911c1.802,0.098,3.647,0.127,5.527,0.127c2.202,0,4.46-0.043,6.804-0.049
			c0.392-0.007,0.785-0.007,1.177-0.007h22.915c1.69,0,3.064-1.374,3.064-3.065c0-1.697-1.375-3.072-3.064-3.072H46.197
			c0.357-0.849,0.694-1.761,1.002-2.721h28.595c1.844,0,3.331-1.494,3.331-3.339c0-1.844-1.487-3.338-3.331-3.338H48.854
			c0.056-0.288,0.105-0.582,0.155-0.877c0.098-0.533,0.182-1.065,0.252-1.599c0.056-0.337,0.104-0.667,0.147-1.003h30.235
			c2.09,0,3.788-1.698,3.788-3.795c0-2.09-1.697-3.787-3.788-3.787H49.998c0.007-0.442,0.007-0.884,0-1.311
			c0-0.281-0.007-0.561-0.021-0.835c0-0.167-0.007-0.336-0.014-0.497h21.413c2.09,0,3.787-1.698,3.787-3.788
			c0-2.09-1.697-3.788-3.787-3.788H42.654c0,0-9.342,1.122-7.736-2.707c0.484-1.158,3.066-1.564,6.277-2.161
			c0.976-0.182,2.013-0.378,3.066-0.631c1.283-0.294,2.58-0.659,3.836-1.15c0.077-0.021,0.154-0.056,0.231-0.084
			c1.494-0.597,2.91-1.361,4.117-2.384c0.105-0.084,0.21-0.176,0.316-0.268c0.112-0.098,0.218-0.204,0.315-0.301
			c5.184-5.092-2.005-9.006-5.73-5.113c-0.28,0.294-0.624,0.561-1.017,0.807c-0.793,0.491-1.803,0.877-2.959,1.192
			c-1.824,0.491-4.026,0.8-6.368,1.017c-0.456,0.042-0.927,0.078-1.397,0.12c-1.479,0.112-2.994,0.203-4.495,0.294
			c-1.466,0.084-2.925,0.168-4.307,0.273c-1.936,0.147-3.739,0.336-5.26,0.624C13.961,9.257,12.16,21.349,4.76,21.349
			C4.76,21.349,3.686,21.119,3.456,21.349z"/>
		<rect x="33.299" y="6.579" fill="#2FC280" width="21.525" height="50.754"/>
		<path fill="#FFFFFF" d="M46.96,52.687h-5.798c0-2.15-1.743-3.892-3.892-3.892V15.119c2.149,0,3.892-1.743,3.892-3.892h5.798
			c0,2.149,1.742,3.892,3.892,3.892v33.676C48.703,48.795,46.96,50.537,46.96,52.687z"/>
		<circle fill="#2FC280" cx="44.061" cy="31.957" r="4.765"/>
		
			<rect x="16.653" y="18.94" transform="matrix(-0.2872 0.9579 -0.9579 -0.2872 82.5523 -2.0255)" fill="#2FC280" width="50.754" height="21.524"/>
		<path fill="#FFFFFF" d="M38.853,50.392l-5.554-1.665c0.617-2.06-0.551-4.229-2.611-4.846l9.674-32.258
			c2.058,0.618,4.228-0.551,4.845-2.61l5.554,1.665c-0.618,2.059,0.551,4.229,2.609,4.846l-9.672,32.259
			C41.64,47.164,39.47,48.333,38.853,50.392z"/>
		<circle fill="#2FC280" cx="42.03" cy="29.702" r="4.766"/>
		
			<rect x="14.628" y="15.84" transform="matrix(-0.623 0.7822 -0.7822 -0.623 85.7363 11.8812)" fill="#2FC280" width="50.753" height="21.525"/>
		<path fill="#FFFFFF" d="M29.357,44.624l-4.535-3.611c1.339-1.682,1.062-4.131-0.621-5.47L45.182,9.2
			c1.681,1.34,4.13,1.062,5.469-0.619l4.535,3.612c-1.339,1.681-1.062,4.129,0.62,5.469l-20.98,26.343
			C33.144,42.666,30.696,42.942,29.357,44.624z"/>
		<circle fill="#2FC280" cx="40.004" cy="26.603" r="4.766"/>
		<circle fill="none" stroke="#F7931E" stroke-width="0.5414" stroke-miterlimit="10" cx="51.112" cy="30.504" r="8.121"/>
		<circle fill="#FFD53D" cx="51.112" cy="30.504" r="8.121"/>
		<circle fill="none" stroke="#F7931E" stroke-width="0.5414" stroke-miterlimit="10" cx="51.112" cy="30.503" r="6.269"/>
		<circle fill="#FFD53D" cx="54.958" cy="32.523" r="8.121"/>
		<circle fill="none" stroke="#F7931E" stroke-width="0.5414" stroke-miterlimit="10" cx="54.959" cy="32.523" r="8.121"/>
		<circle fill="none" stroke="#F7931E" stroke-width="0.5414" stroke-miterlimit="10" cx="54.958" cy="32.523" r="6.269"/>
		<path fill="#FFDAB6" d="M1.155,41.114l31.483-22.539c0.661-0.829,2-2.325,2.28-2.998c0.484-1.158,3.066-1.564,6.277-2.161
			c0.976-0.182,2.013-0.378,3.066-0.631c1.283-0.294,2.58-0.659,3.836-1.15c0.077-0.021,0.154-0.056,0.231-0.084
			c1.494-0.597,2.91-1.361,4.117-2.384c0.105-0.084,0.21-0.176,0.316-0.268c0.112-0.098,0.218-0.204,0.315-0.301
			c5.184-5.092-2.005-9.006-5.73-5.113c-0.28,0.294-0.624,0.561-1.017,0.807c-0.793,0.491-1.803,0.877-2.959,1.192
			c-1.824,0.491-4.026,0.8-6.368,1.017c-0.456,0.042-0.927,0.078-1.397,0.12c-1.479,0.112-2.994,0.203-4.495,0.294
			c-1.466,0.084-2.925,0.168-4.307,0.273c-1.936,0.147-3.739,0.336-5.26,0.624C13.961,9.257,12.16,21.349,4.76,21.349
			c0,0-1.073-0.231-1.304,0C-0.747,23.951-0.599,35.432,1.155,41.114z"/>
	</g>
</g>
<g id="Capa_3" display="none">
	<path display="inline" fill="#027FA5" d="M86.929,74.907c0,6.532-5.295,11.827-11.827,11.827h-56.77
		c-6.532,0-11.827-5.295-11.827-11.827V32.528c0-6.532,5.295-11.827,11.827-11.827h56.77c6.532,0,11.827,5.295,11.827,11.827V74.907
		z"/>
	
		<rect x="13.601" y="20.701" transform="matrix(0.9883 -0.1527 0.1527 0.9883 -4.595 6.9816)" display="inline" fill="#2FC280" width="59.135" height="25.428"/>
	<path display="inline" fill="#00ADEF" d="M80.424,77.852c0,6.532-5.295,11.827-11.827,11.827h-56.77
		C5.295,89.679,0,84.383,0,77.852v-42.38c0-6.532,5.295-11.827,11.827-11.827h56.77c6.532,0,11.827,5.295,11.827,11.827V77.852z"/>
	<path display="inline" fill="#86BBD3" d="M94.025,56.63c0,3.811-3.089,6.899-6.899,6.899h-28.78c-3.81,0-6.898-3.089-6.898-6.899
		l0,0c0-3.81,3.089-6.898,6.898-6.898h28.78C90.936,49.732,94.025,52.821,94.025,56.63L94.025,56.63z"/>
	<circle display="inline" fill="#FFD53D" cx="63.484" cy="56.63" r="3.955"/>
</g>
<g id="Capa_2">
</g>
</svg>
