<svg xmlns="http://www.w3.org/2000/svg" xmlns:xlink="http://www.w3.org/1999/xlink" id="Capa_1" x="0px" y="0px" width="100px" height="100px" viewBox="0 0 100 100" xml:space="preserve"><g>	<path fill="#395398" d="M100,50.001C100,22.386,77.615,0,50,0C22.386,0,0,22.386,0,50.001C0,77.615,22.386,100,50,100  c0.143,0,0.285-0.011,0.428-0.011v-34.88H38.39V51.167h12.038V40.885c0-11.932,7.288-18.429,17.931-18.429  c5.099,0,9.48,0.38,10.757,0.549v12.47l-7.382,0.002c-5.788,0-6.908,2.75-6.908,6.786v8.902H78.63l-1.796,13.942H64.825v32.656  C85.2,91.447,100,72.452,100,50.001z"></path>	<path fill="#FFFFFF" d="M76.834,65.109l1.796-13.942H64.825v-8.902c0-4.036,1.12-6.786,6.908-6.786l7.382-0.002v-12.47  c-1.276-0.169-5.658-0.549-10.757-0.549c-10.643,0-17.931,6.497-17.931,18.429v10.282H38.39v13.942h12.038v34.88  c5.009-0.042,9.843-0.813,14.397-2.224V65.109H76.834z"></path></g></svg>