<svg xmlns="http://www.w3.org/2000/svg" xmlns:xlink="http://www.w3.org/1999/xlink" id="Capa_1" x="0px" y="0px" width="100px" height="100px" viewBox="0 0 100 100" xml:space="preserve"><path fill="#00ADEF" d="M100,50.001C100,22.386,77.615,0,50,0C22.386,0,0,22.386,0,50.001C0,77.615,22.386,100,50,100 c7.792-0.104,14.825-2.234,14.825-2.234C85.2,91.447,100,72.452,100,50.001z"></path><path fill="#FFFFFF" d="M21.698,28.462c0,0,3.291-5.75,5.971-6.078c2.682-0.33,6.134-0.33,7.063,1.423 c0.932,1.751,5.092,11.939,5.092,11.939s0.714,1.752-0.381,3.45c-1.095,1.697-3.56,4.161-3.56,4.161s-1.369,1.752,0,3.615 c1.37,1.859,3.493,5.283,7.887,9.671c4.386,4.393,12.812,7.523,12.812,7.523s1.205,0.163,1.975-0.603 c0.764-0.767,4.928-5.97,4.928-5.97s1.335-1.723,3.558-0.71c2.217,1.012,11.826,5.804,11.826,5.804s1.124,0.41,1.124,2.107 s-0.686,5.851-2.091,7.254c-1.405,1.406-5.512,5.735-11.683,5.735c-6.17,0-20.866-5.021-28.695-12.851 c-7.831-7.833-14.783-15.773-16.425-23C19.456,34.706,19.676,31.439,21.698,28.462z"></path></svg>