<svg xmlns="http://www.w3.org/2000/svg" xmlns:xlink="http://www.w3.org/1999/xlink" id="Capa_1" x="0px" y="0px" width="100px" height="100px" viewBox="0 0 100 100" xml:space="preserve"><g>	<g>		<g>			<path fill="#32BA46" d="M50.155,100.308c-8.78,0-17.389-2.318-25.016-6.731l-19.541,6.731l4.017-20.691    C3.318,70.99,0,60.838,0,50.155C0,22.5,22.5,0,50.155,0c27.659,0,50.155,22.5,50.155,50.155    C100.31,77.81,77.813,100.308,50.155,100.308z"></path>		</g>	</g>	<g>		<g>			<path fill="none" d="M50.155,19.825c-16.749,0-30.328,13.58-30.328,30.329c0,7.041,2.42,13.5,6.444,18.647l-2.028,10.44    l9.851-3.395c4.662,2.923,10.156,4.638,16.061,4.638c16.751,0,30.333-13.581,30.333-30.331    C80.487,33.405,66.906,19.825,50.155,19.825z"></path>			<path fill="#FFFFFF" d="M50.155,82.922c-5.734,0-11.36-1.519-16.341-4.398l-12.768,4.398l2.624-13.521    c-4.111-5.636-6.281-12.266-6.281-19.248c0-18.067,14.699-32.766,32.766-32.766c18.069,0,32.765,14.699,32.765,32.766    C82.92,68.223,68.224,82.922,50.155,82.922z M34.401,73.165l0.988,0.616c4.45,2.791,9.556,4.263,14.766,4.263    c15.381,0,27.893-12.512,27.893-27.89c0-15.377-12.512-27.89-27.893-27.89c-15.378,0-27.89,12.513-27.89,27.89    c0,6.257,2.05,12.184,5.924,17.145l0.686,0.874l-1.435,7.389L34.401,73.165z"></path>		</g>		<path fill="#FFFFFF" d="M33.614,37.566c0,0,1.923-3.361,3.49-3.552c1.567-0.193,3.586-0.193,4.129,0.83   c0.545,1.026,2.976,6.979,2.976,6.979s0.417,1.024-0.223,2.017c-0.639,0.994-2.079,2.433-2.079,2.433s-0.801,1.023,0,2.113   c0.799,1.088,2.04,3.087,4.608,5.651c2.564,2.569,7.489,4.399,7.489,4.399s0.704,0.094,1.154-0.354   c0.444-0.447,2.88-3.49,2.88-3.49s0.781-1.004,2.078-0.413c1.298,0.592,6.915,3.394,6.915,3.394s0.657,0.239,0.657,1.23   s-0.402,3.418-1.222,4.24c-0.822,0.822-3.222,3.352-6.829,3.352s-12.196-2.934-16.773-7.511c-4.577-4.578-8.641-9.22-9.601-13.443   C32.303,41.214,32.432,39.306,33.614,37.566z"></path>	</g></g></svg>