<svg xmlns="http://www.w3.org/2000/svg" xmlns:xlink="http://www.w3.org/1999/xlink" id="Capa_1" x="0px" y="0px" width="83.432px" height="105.811px" viewBox="0 0 83.432 105.811" xml:space="preserve"><g id="Capa_3" display="none">	<path display="inline" fill="#027FA5" d="M86.929,74.907c0,6.531-5.295,11.826-11.827,11.826h-56.77  c-6.532,0-11.827-5.295-11.827-11.826v-42.38c0-6.531,5.295-11.826,11.827-11.826h56.77c6.532,0,11.827,5.295,11.827,11.826V74.907  z"></path>			<rect x="13.603" y="20.699" transform="matrix(-0.9883 0.1527 -0.1527 -0.9883 90.9383 59.8435)" display="inline" fill="#2FC280" width="59.137" height="25.429"></rect>	<path display="inline" fill="#00ADEF" d="M80.424,77.852c0,6.532-5.295,11.827-11.827,11.827h-56.77  C5.295,89.679,0,84.383,0,77.852v-42.38c0-6.532,5.295-11.827,11.827-11.827h56.77c6.532,0,11.827,5.295,11.827,11.827V77.852z"></path>	<path display="inline" fill="#86BBD3" d="M94.025,56.63c0,3.811-3.089,6.898-6.898,6.898h-28.78c-3.81,0-6.897-3.089-6.897-6.898  l0,0c0-3.811,3.089-6.898,6.897-6.898h28.78C90.936,49.732,94.025,52.821,94.025,56.63L94.025,56.63z"></path>	<circle display="inline" fill="#FFD53D" cx="63.484" cy="56.63" r="3.955"></circle></g><g id="Capa_2">	<g>		<path fill="#A221AF" d="M21.903,70.285c-0.6,0.571-1.171,1.117-1.758,1.647c-0.803,0.736-1.688,1.35-2.71,1.731   c-2.506,0.912-4.74-0.259-5.462-2.82c-0.313-1.131-0.272-2.275-0.082-3.419c0.204-1.2,0.38-2.412,0.681-3.583   c0.313-1.213,0.722-2.384,1.132-3.57c0.516-1.512,1.062-3.023,1.62-4.536c0.354-0.953,0.341-1.92,0.3-2.901   c-0.057-1.021,0.436-1.594,1.429-1.539c0.818,0.041,1.623,0.149,2.249,0.803c0.723,0.751,0.967,1.649,0.708,2.63   c-0.49,1.854-1.076,3.678-1.593,5.518c-0.422,1.498-0.817,3.011-1.172,4.536c-0.123,0.531-0.123,1.104-0.055,1.647   c0.108,1.063,0.98,1.607,1.947,1.157c0.558-0.259,1.089-0.667,1.54-1.116c1.389-1.403,2.192-3.174,2.846-5.013   c0.232-0.642,0.479-1.282,0.708-1.936c0.52-1.458,1.049-2.901,1.556-4.358c0.421-1.24,0.789-2.507,1.197-3.746   c0.683-2.002,2.807-3.706,4.973-3.598c1.117,0.057,1.376,0.532,1.172,1.473c-0.383,1.757-0.845,3.486-1.336,5.218   c-2.152,7.683-4.305,15.354-6.471,23.021c-0.04,0.162-0.081,0.34-0.121,0.489c7.505-1.225,14.996-2.438,22.559-3.664   c0.298-1.594,0.612-3.256,0.966-5.066c-0.3,0.189-0.477,0.299-0.653,0.408c-0.792,0.477-1.607,0.899-2.549,1.075   c-1.634,0.287-2.86-0.448-3.352-2.043c-0.067-0.218-0.121-0.448-0.203-0.734c-0.3,0.53-0.546,1.021-0.846,1.483   c-0.845,1.294-1.907,2.304-3.474,2.657c-2.302,0.503-4.55-0.695-5.366-2.916c-0.45-1.226-0.642-2.52-0.683-3.828   c-0.123-3.665,0.804-7.11,2.167-10.476c0.64-1.593,1.43-3.105,2.465-4.468c0.79-1.035,1.677-1.977,2.739-2.738   c1.716-1.227,4.237-1.43,6.253,0.423c0.122-0.368,0.245-0.708,0.354-1.063c0.285-0.912,1.021-1.172,1.961-1.049   c0.369,0.055,0.734,0.15,1.09,0.272c0.708,0.246,1.077,0.763,1.089,1.499c0,0.478-0.081,0.967-0.177,1.429   c-0.79,3.639-1.608,7.275-2.356,10.912c-0.23,1.159-0.271,2.358-0.38,3.543c-0.028,0.231,0.013,0.489,0.067,0.721   c0.135,0.587,0.407,0.736,0.967,0.504c0.409-0.162,0.791-0.381,1.159-0.625c0.585-0.382,0.871-0.912,1.008-1.623   C51,57.357,52.035,52.059,53.057,46.76c0.013-0.069,0.027-0.123,0.042-0.19c0.313-1.472,0.871-1.472,2.098-1.309   c0.449,0.055,0.886,0.204,1.321,0.354c0.545,0.19,0.682,0.45,0.626,1.035c-0.04,0.354-0.081,0.694,0,1.09   c0.313-0.368,0.613-0.749,0.927-1.116c0.408-0.463,0.764-0.981,1.239-1.35c1.295-1.007,2.793-1.279,4.389-0.885   c1.089,0.259,1.757,1.035,2.191,2.029c0.681,1.565,0.871,3.228,0.913,4.904c0.082,3.118-0.613,6.116-1.498,9.058   c-0.504,1.689-1.132,3.339-2.071,4.85c-0.504,0.817-1.063,1.637-1.717,2.344c-2.711,2.943-6.184,1.934-8.092,0.177   c-0.15-0.136-0.272-0.286-0.531-0.545c-0.341,2.274-0.653,4.414-0.995,6.661c0.642-0.068,1.171-0.137,1.719-0.203   c4.29-0.532,8.581-1.063,12.873-1.567c1.946-0.23,3.908-0.436,5.856-0.572c1.021-0.067,2.07-0.027,3.105,0.055   c1.662,0.136,2.397,1.729,2.043,3.119c-0.164,0.627-0.586,1.091-1.267,1.226c-1.186,0.232-2.371,0.504-3.569,0.655   c-5.313,0.68-10.641,1.319-15.952,1.975c-1.702,0.218-3.405,0.462-5.108,0.667c-0.368,0.041-0.517,0.163-0.613,0.531   c-0.162,0.654-0.38,1.308-0.626,1.948c-0.244,0.641-0.708,1.116-1.308,1.443c-1.036,0.572-2.193,0.041-2.356-1.131   c-0.095-0.667-0.014-1.348-0.014-2.098c-0.995,0.137-1.948,0.247-2.889,0.409c-6.361,1.116-12.696,2.315-18.989,3.802   c-0.532,0.122-1.198,0.135-1.554,0.475c-0.354,0.329-0.437,0.982-0.612,1.5c-0.968,2.957-2.044,5.871-3.474,8.638   c-1.539,2.982-3.394,5.733-5.83,8.05c-1.5,1.417-3.189,2.479-5.273,2.833c-3.678,0.612-6.784-1.825-7.042-5.558   c-0.123-1.771,0.354-3.446,0.913-5.108c0.721-2.111,1.797-4.032,3.147-5.79c0.708-0.926,1.471-1.852,2.354-2.628   c3.093-2.685,6.403-5.041,10.313-6.432c0.229-0.082,0.475-0.136,0.667-0.271c0.23-0.177,0.504-0.396,0.6-0.641   c0.98-2.902,1.919-5.816,2.874-8.718C21.93,70.421,21.903,70.34,21.903,70.285z M16.834,86.333   c-0.189,0.067-0.38,0.123-0.559,0.204c-2.86,1.39-5.325,3.269-7.287,5.789c-1.227,1.566-2.315,3.229-2.875,5.164   c-0.163,0.585-0.246,1.211-0.218,1.811c0.042,0.967,0.858,1.485,1.771,1.185c0.368-0.121,0.721-0.325,1.049-0.545   c1.021-0.681,1.825-1.594,2.561-2.561c1.702-2.207,3.024-4.646,4.155-7.193c0.543-1.239,0.98-2.534,1.457-3.813   c0.027-0.028,0.055-0.056,0.083-0.083C16.945,86.319,16.89,86.333,16.834,86.333z M62.292,52.481   c-0.08-0.462-0.136-1.239-0.354-1.962c-0.396-1.295-1.28-1.605-2.37-0.776c-0.612,0.479-1.198,1.076-1.58,1.729   c-0.6,1.05-1.09,2.167-1.484,3.298c-0.981,2.901-1.621,5.897-2.234,8.881c-0.083,0.382,0.014,0.653,0.354,0.817   c0.3,0.136,0.599,0.286,0.926,0.327c1.253,0.149,2.329-0.299,3.133-1.228c0.559-0.64,1.036-1.375,1.376-2.15   c0.531-1.199,0.954-2.452,1.363-3.719C61.925,56.118,62.184,54.47,62.292,52.481z M44.42,52.835   c0.025-1.321-0.682-1.894-1.715-1.634c-0.273,0.066-0.546,0.189-0.806,0.299c-1.512,0.681-2.588,1.812-3.404,3.215   c-1.199,2.043-1.894,4.263-2.125,6.605c-0.108,1.117-0.055,2.248,0.382,3.324c0.095,0.246,0.205,0.49,0.354,0.709   c0.736,1.049,1.867,1.13,2.751,0.219c0.791-0.831,1.282-1.854,1.636-2.916c0.845-2.521,1.621-5.067,2.396-7.614   C44.148,54.238,44.297,53.407,44.42,52.835z"></path>		<path fill="#01E0C5" d="M48.575,0.975c7.355,0.45,13.173,3.842,16.359,11.007c3.188,7.181,1.036,15.652-5.041,20.665   c-3.854,3.174-8.281,4.578-13.254,4.318c-1.498-0.082-2.982-0.34-4.398-0.858c-0.695-0.258-1.296-0.189-1.881,0.205   c-0.885,0.585-1.758,1.17-2.643,1.757c-0.545,0.367-1.103,0.735-1.662,1.09c-0.189,0.123-0.381,0.219-0.585,0.313   c-0.926,0.408-1.349,0.165-1.39-0.83c-0.027-0.586,0.013-1.185,0.095-1.785c0.15-1.197,0.34-2.397,0.518-3.597   c0.163-1.007-0.069-1.838-0.776-2.655c-3.065-3.568-4.455-7.751-4.224-12.451c0.178-3.583,1.443-6.783,3.516-9.685   c0.612-0.845,1.361-1.608,2.125-2.343c2.997-2.89,6.619-4.454,10.719-4.987C46.777,1.043,47.499,1.043,48.575,0.975z    M44.312,28.015c0.723-0.163,1.676-0.271,2.548-0.599c1.839-0.682,2.833-2.533,2.493-4.399c-0.191-1.049-0.776-1.854-1.636-2.466   c-1.184-0.831-2.533-1.308-3.867-1.84c-0.696-0.271-1.405-0.572-1.99-1.021c-1.212-0.913-0.993-2.452,0.409-3.064   c1.158-0.503,2.289-0.34,3.352,0.3c0.669,0.394,1.063,0.981,1.076,1.784c0,0.177,0.041,0.354,0.082,0.518   c0.178,0.601,0.667,0.967,1.213,0.899c0.599-0.056,1.063-0.519,1.075-1.158c0.028-1.593-0.53-2.916-1.961-3.705   c-1.947-1.076-3.99-1.213-6.048-0.354c-1.212,0.504-2.015,1.417-2.179,2.765c-0.177,1.472,0.244,2.725,1.525,3.556   c0.693,0.449,1.457,0.818,2.221,1.172c0.749,0.354,1.552,0.626,2.303,0.995c0.489,0.245,0.966,0.544,1.362,0.912   c0.626,0.613,0.831,1.403,0.571,2.247c-0.245,0.818-0.98,1.009-1.717,1.131c-0.327,0.055-0.653,0.069-0.994,0.069   c-2.111-0.016-3.16-0.954-3.404-3.039c-0.097-0.749-0.574-1.199-1.268-1.144c-0.669,0.042-1.132,0.586-1.077,1.335   c0.163,2.166,1.35,4.155,3.869,4.781C42.854,27.852,43.467,27.893,44.312,28.015z M59.719,13.534   c-0.015-0.6-0.232-0.94-0.641-1.145c-0.396-0.189-0.914-0.108-1.227,0.218c-0.164,0.178-0.286,0.382-0.409,0.6   c-2.274,4.154-4.55,8.31-6.824,12.465c-0.109,0.19-0.219,0.381-0.301,0.585c-0.164,0.478,0.028,0.996,0.449,1.267   c0.423,0.272,0.981,0.246,1.35-0.108c0.149-0.149,0.272-0.34,0.381-0.531c2.329-4.25,4.659-8.5,6.976-12.75   C59.597,13.902,59.664,13.657,59.719,13.534z"></path>		<path fill="#A221AF" d="M67.129,60.899c0.082-1.456,0.015-2.643,0.245-3.771c0.313-1.553,0.763-3.106,1.308-4.59   c0.926-2.563,2.152-4.987,3.896-7.099c0.857-1.022,1.865-1.962,2.94-2.725c1.173-0.831,2.588-0.954,4.021-0.775   c0.858,0.108,1.661,0.34,2.355,0.886c0.846,0.682,1.31,1.54,1.472,2.615c0.178,1.186-0.027,2.316-0.408,3.434   c-1.526,4.48-4.59,7.314-9.209,8.433c-0.067,0.013-0.137,0.054-0.19,0.041c-0.886-0.123-1.09,0.476-1.294,1.145   c-0.287,0.993-0.423,1.975-0.177,2.996c0.271,1.104,1.13,1.689,2.274,1.513c1.279-0.19,2.371-0.845,3.338-1.662   c0.791-0.667,1.525-1.402,2.22-2.166c1.021-1.145,1.623-1.076,2.248,0.34c0.042,0.095,0.083,0.205,0.136,0.299   c0.64,1.336,0.438,2.426-0.667,3.501c-1.785,1.717-3.598,3.379-5.939,4.292c-0.858,0.327-1.758,0.627-2.671,0.708   c-2.506,0.246-4.453-1.076-5.299-3.474c-0.164-0.45-0.299-0.926-0.367-1.403C67.251,62.508,67.197,61.568,67.129,60.899z    M73.544,52.985c0.042,0.055,0.083,0.109,0.123,0.179c0.586-0.22,1.2-0.382,1.757-0.667c1.607-0.817,2.944-1.936,3.597-3.707   c0.205-0.544,0.327-1.104,0.149-1.688c-0.162-0.586-0.626-0.913-1.198-0.734c-0.423,0.123-0.872,0.354-1.185,0.667   C75.139,48.693,74.226,50.778,73.544,52.985z"></path>	</g></g></svg>