<svg xmlns="http://www.w3.org/2000/svg"
                                                            xmlns:xlink="http://www.w3.org/1999/xlink"
                                                            id="Nautik_Delivery" x="0px" y="0px" width="40px"
                                                            height="40px" 
                                                            viewBox="17.44 0 144.856 256.619" xml:space="preserve">
                                                            <path id="silueta_galón" fill="#FF6600"
                                                                d="M162.296,89.16c0-0.19-0.01-0.38-0.02-0.57c-0.09-1.62-0.66-4.41-3.07-7.6 c-0.23-4.34-1.31-10.54-5.23-15.29c-1.9-2.96-4.97-4.99-6.98-6.32c-6.17-4.08-16.96-9.59-32.07-16.38l-1.28-0.45l0.01-0.02h-0.01 l0.02-0.87c0.05-2.68-0.98-5.27-2.86-7.19l-0.09-0.09c0.95-1.52,1.52-3.31,1.54-5.24l0.19-17.99c0.01-1.68-0.39-3.34-1.18-4.82 c-0.67-1.24-2.24-3.57-5.29-5.18c-1.44-0.75-3.04-1.15-4.66-1.15h-23c-1.27,0-2.54,0.25-3.73,0.72c-1.43,0.58-4.95,2.36-6.68,6.38 c-0.55,1.27-0.83,2.65-0.81,4.04l0.19,18.1c0.02,1.86,0.54,3.59,1.44,5.08c-0.17,0.18-0.35,0.36-0.51,0.56 c-1.82,2.17-2.68,4.71-2.31,7.41l-29.85,14.7c-1.77,0.86-12.32,6.49-15.19,19.57c-0.1,0.49-0.17,0.98-0.2,1.47 c-0.09,1.229-0.13,2.28-0.15,3.18c-1.56,1.78-3.26,4.84-3.06,9.59v9.29c0,0.17,0,0.34,0.01,0.51c0.13,2.51,1.03,5.58,3.05,8.09 l0.03,69.61c-1.45,1.76-3.09,4.65-3.09,8.669v10.79c0,1.021,0.16,2.039,0.47,3.021c0.43,1.35,1.2,3.229,2.53,4.959v8.09 c-1.38,1.83-3,4.92-3,9.32v4.479c0,1.062,0.2,10.451,7.19,18.111c1.79,2.149,8.44,9.129,20.15,10.779c0.46,0.061,0.92,0.1,1.39,0.1 h88.45c0.15,0,0.29-0.01,0.43-0.01c10.94-0.47,27.23-9.939,27.23-34.119h-0.01c-0.04-2.5-1.04-4.48-1.48-5.361 c-0.29-0.58-0.78-1.539-1.59-3.108v-8.472c1.68-2.079,2.86-5,2.83-8.868l0.24-9.421c0.01-0.39,0-0.779-0.03-1.17 c-0.22-2.35-1.19-5.37-3.21-8.12c-0.01-1.13,0-2.72,0.04-4.92v-0.2l-0.09-63.98c1.58-1.91,3.3-5.03,3.3-9.54V89.16L162.296,89.16z  M142.296,97.27c-1.86,2.18-2.65,4.43-2.9,5.28c-0.27,0.92-0.4,1.87-0.4,2.83l0.09,67.4c-0.17,9.54-0.22,13.13,3.12,16.53 c0.01,0.01,0.01,0.01,0.02,0.02l-0.13,5.021c-1.98,2.6-2.59,5.408-2.76,6.5c-0.08,0.51-0.12,1.02-0.12,1.54v14.069 c0,1.609,0.38,3.189,1.13,4.619c0.85,1.641,1.45,2.812,1.88,3.631c-0.66,9.75-5.62,11.59-8.05,11.91h-87.2 c-4.11-0.761-6.4-3.061-6.86-3.57c-0.24-0.34-0.3-0.369-0.64-0.729c-1.74-1.851-1.99-4.47-2.02-4.851v-2.76 c1.77-2.451,2.5-5.08,2.78-6.351c0.14-0.69,0.22-1.38,0.22-2.08v-13.01c0.05-3.86-1.61-6.84-3-8.649v-5.17 c1.62-2.14,2.4-4.36,2.71-5.47c0.25-0.89,0.38-1.81,0.38-2.73l-0.03-75.17c0.03-3.51-1.32-6.48-3.06-8.66v-4.93 c2.52-3.1,3.09-5.97,3.17-7.63c0.03-0.68,0-1.36-0.1-2.03c-0.03-0.5-0.01-1.57,0.04-2.61c0.52-1.71,1.52-2.99,2.42-3.85 c0.9-0.87,1.72-1.34,1.87-1.42l31.19-15.36c7.026-4.057,21.296-2.092,27.8,0.36c1.224,0.461,2.29,1.15,3.38,1.52 c22.05,9.93,28.57,14.34,30.22,15.63c0.33,0.47,0.69,0.91,1.09,1.33c0.5,0.92,0.84,3.65,0.69,5.57c-0.28,3.06,0.86,6.07,3.07,8.17 V97.27L142.296,97.27z">
                                                            </path>
                                                            <path fill="#FF6600"
                                                                d="M125.009,108.926c-1.344,2.028-2.281,4.093-2.61,6.331c-0.412,2.812-0.833,5.655-0.846,8.486 c-0.078,16.523-0.064,33.048-0.018,49.573c0.011,3.856,0.209,7.729,1.541,11.413c0.48,1.329,1.167,2.582,1.789,3.933 c-0.188,0.011-0.46,0.039-0.733,0.039c-3.774,0.003-7.55-0.034-11.324,0.013c-3.605,0.043-6.301-1.342-8.415-4.369 c-14.503-20.778-29.089-41.497-43.65-62.234c-0.187-0.266-0.38-0.526-0.795-0.775c0,0.325,0.002,0.65,0,0.975 c-0.072,10.063,1.661,19.86,4.755,29.385c2.636,8.116,5.682,16.098,8.491,24.158c0.828,2.374,1.518,4.799,2.166,7.229 c0.208,0.779,0.181,1.664,0.076,2.476c-0.191,1.479-1.154,2.376-2.554,2.769c-0.681,0.191-1.398,0.344-2.101,0.348 c-5.347,0.027-10.694,0.015-15.93,0.015c0.654-1.616,1.434-3.211,1.946-4.888c1.013-3.32,1.22-6.777,1.228-10.218 c0.039-16.792,0.038-33.583-0.007-50.376c-0.009-3.561-0.259-7.128-1.554-10.508c-0.485-1.263-1.127-2.466-1.738-3.784 c0.168,0,0.357,0,0.546,0c3.626,0,7.252-0.027,10.877,0.011c2.396,0.025,4.793,0.238,6.733,1.842 c0.926,0.766,1.771,1.686,2.462,2.67c14.375,20.468,28.724,40.955,43.078,61.437c0.283,0.403,0.578,0.798,1.075,1.142 c0.021-0.306,0.053-0.611,0.062-0.917c0.244-8.319-1.036-16.426-3.251-24.427c-2.56-9.244-6.078-18.148-9.418-27.118 c-1.125-3.022-2.042-6.123-3.037-9.193c-0.145-0.447-0.214-0.925-0.271-1.396c-0.222-1.804,0.561-3.076,2.3-3.617 c0.729-0.227,1.51-0.402,2.268-0.406C113.706,108.91,119.263,108.926,125.009,108.926z">
                                                            </path>
                                                        </svg>