 <svg
                                                    xmlns="http://www.w3.org/2000/svg"
                                                    xmlns:xlink="http://www.w3.org/1999/xlink" id="Capa_1" x="0px"
                                                    y="0px" width="25px" height="25px" viewBox="0 0 388.638 382.53"
                                                    xml:space="preserve" class="text-color-titulos-entrega">
                                                    <g>
                                                        <path fill-rule="evenodd" clip-rule="evenodd" fill="#293241"
                                                            d="M230.17,320.31V142.75h0.01c0-6.3,0.011-12.6-0.01-18.9  c-0.05-19.36-12.65-32.01-32-32.15c-3.74-0.03-7.48,0.1-11.21-0.1c-0.88-0.05-2.45-1.16-2.46-1.8c-0.16-9.56-0.11-19.12-0.11-29.04  c1.68-0.08,3-0.2,4.31-0.2c10.84-0.02,21.67,0.01,32.5-0.02c6.22-0.02,8.95-2.67,8.96-8.82c0-8.09,0.45-16.24-0.34-24.26  c-1.4-14.19-10.67-23.82-24.63-26.79c-0.601-0.12-1.15-0.44-1.721-0.67H74.22c-1.42,0.41-2.83,0.83-4.25,1.22  c-13.62,3.8-22.3,15.44-22.37,30.33c-0.09,18.41-0.03,36.82-0.03,55.23v4.91H36.08C16.91,91.7,7.24,99.04,2.17,117.44  c-0.07,0.22-0.28,0.4-0.42,0.6v238.34c0.31,0.91,0.67,1.8,0.93,2.71c3.42,12.141,11.18,19.78,23.52,22.67  c0.83,0.19,1.63,0.51,2.44,0.771h174.83c1.311-0.36,2.601-0.75,3.91-1.09c13.58-3.521,22.67-15.37,22.771-30.07  c0.069-10.351,0.06-20.71,0.05-31.061H230.17z M184.76,29.02c0.51-7.89,6.48-13.5,14.44-13.91c7.64-0.39,14.399,4.59,15.47,12.23  c0.76,5.38,0.521,10.91,0.45,16.37c-0.01,0.66-1.75,1.81-2.73,1.87c-4.1,0.21-8.21,0.08-12.319,0.08  c-4.11,0.01-8.21-0.06-12.32,0.04c-2.1,0.05-3.26-0.45-3.17-2.87C184.73,38.23,184.47,33.61,184.76,29.02z M62.3,32.02  c0-10.82,6.38-17.15,17.19-17.16c30.01-0.01,60.02,0,90.02,0h4.32c-5.57,9.52-4.04,19.49-4.08,29.22  c-0.11,29.63-0.1,59.27,0.04,88.9c0.02,3.57-0.94,4.59-4.55,4.57c-32.87-0.13-65.74-0.12-98.61-0.01  c-3.33,0.01-4.44-0.75-4.43-4.29C62.34,99.51,62.27,65.77,62.3,32.02z M215.28,125.38c0.01,74.44,0.01,148.89,0,223.33  c0,13.17-5.681,18.84-18.88,18.83c-53.78-0.06-107.561-0.13-161.331-0.2c-12.22-0.02-18.11-5.89-18.12-18.08  c-0.01-37.35,0-74.689,0-112.04c0-37.72,0.02-75.44-0.02-113.16c0-5.5,1.11-10.74,5.91-13.77c2.97-1.89,6.81-2.7,10.38-3.26  c3.4-0.53,6.96,0.04,10.43-0.16c2.87-0.17,3.59,0.99,3.56,3.69c-0.12,10.71-0.06,21.42-0.04,32.12c0.02,7.05,2.89,9.91,10.04,9.9  c39.21-0.07,78.42-0.15,117.63-0.24c6.96-0.01,9.72-2.75,9.74-9.74c0.05-10.71,0.12-21.42-0.05-32.12  c-0.05-3.16,1.04-4.14,4.08-3.96c3.84,0.23,7.72-0.04,11.57,0.12c8.431,0.35,14.391,6.21,15.04,14.63  C215.33,122.63,215.28,124.01,215.28,125.38z">
                                                        </path>
                                                        <path fill-rule="evenodd" clip-rule="evenodd" fill="#293241"
                                                            d="M55.057,274.141c2.49,0.005,4.991-0.15,7.466,0.038  c4.741,0.36,7.911,3.631,7.875,7.873c-0.034,4.099-3.039,7.452-7.615,7.714c-5.209,0.297-10.464,0.3-15.672-0.023  c-4.609-0.285-7.457-3.601-7.426-7.804c0.032-4.364,3.073-7.443,7.904-7.773C50.067,273.996,52.567,274.135,55.057,274.141z">
                                                        </path>
                                                        <path fill-rule="evenodd" clip-rule="evenodd" fill="#293241"
                                                            d="M55.024,335.561c-2.613,0-5.239,0.165-7.836-0.037  c-4.55-0.354-7.48-3.494-7.502-7.743c-0.022-4.12,2.609-7.351,7.091-7.647c5.444-0.361,10.949-0.37,16.392-0.002  c4.587,0.312,7.451,3.873,7.212,7.969c-0.243,4.154-3.337,7.161-7.893,7.45c-2.479,0.156-4.976,0.028-7.464,0.028  C55.024,335.572,55.024,335.566,55.024,335.561z">
                                                        </path>
                                                        <path fill-rule="evenodd" clip-rule="evenodd" fill="#293241"
                                                            d="M177.011,289.35c-2.852,0-5.728,0.226-8.552-0.055  c-3.99-0.395-6.543-3.437-6.55-7.287c-0.006-3.683,2.354-6.962,6.168-7.212c5.92-0.387,11.902-0.383,17.823-0.001  c3.806,0.245,6.207,3.535,6.214,7.189c0.008,3.821-2.594,6.747-6.545,7.358c-0.368,0.057-0.739,0.122-1.109,0.125  c-2.483,0.011-4.965,0.006-7.448,0.006C177.012,289.432,177.011,289.391,177.011,289.35z">
                                                        </path>
                                                        <path fill-rule="evenodd" clip-rule="evenodd" fill="#293241"
                                                            d="M115.849,289.37c-2.728,0-5.472,0.196-8.178-0.046  c-4.092-0.366-6.576-3.176-6.665-7.111c-0.091-4.008,2.144-7.164,6.238-7.446c5.792-0.398,11.649-0.395,17.443-0.018  c4.057,0.266,6.411,3.486,6.345,7.396c-0.067,4.017-2.732,6.786-6.999,7.267c-0.369,0.042-0.743,0.067-1.114,0.068  c-2.357,0.006-4.714,0.003-7.071,0.003C115.849,289.445,115.849,289.407,115.849,289.37z">
                                                        </path>
                                                        <path fill-rule="evenodd" clip-rule="evenodd" fill="#293241"
                                                            d="M115.648,59.37c-5.949,0-11.935,0.196-17.836-0.046  c-8.926-0.366-14.342-3.176-14.537-7.111c-0.198-4.008,4.677-7.164,13.605-7.446c12.632-0.398,25.408-0.395,38.045-0.018  c8.849,0.266,13.982,3.486,13.839,7.396c-0.146,4.017-5.958,6.786-15.266,7.267c-0.805,0.042-1.62,0.067-2.429,0.068  c-5.141,0.006-10.281,0.003-15.422,0.003C115.648,59.445,115.648,59.407,115.648,59.37z">
                                                        </path>
                                                        <path fill-rule="evenodd" clip-rule="evenodd" fill="#293241"
                                                            d="M115.648,88.704c-5.949,0-11.935,0.196-17.836-0.046  c-8.926-0.366-14.342-3.176-14.537-7.111c-0.198-4.008,4.677-7.164,13.605-7.446c12.632-0.398,25.408-0.395,38.045-0.018  c8.849,0.266,13.982,3.486,13.839,7.396c-0.146,4.017-5.958,6.786-15.266,7.267c-0.805,0.042-1.62,0.067-2.429,0.068  c-5.141,0.006-10.281,0.003-15.422,0.003C115.648,88.779,115.648,88.741,115.648,88.704z">
                                                        </path>
                                                        <path fill-rule="evenodd" clip-rule="evenodd" fill="#293241"
                                                            d="M176.964,320.352c2.607-0.003,5.22-0.115,7.819,0.023  c4.262,0.228,7.072,2.99,7.313,6.977c0.228,3.74-2.212,7.329-6.15,7.618c-5.914,0.436-11.905,0.44-17.821,0.022  c-3.975-0.281-6.377-3.768-6.201-7.568c0.186-4.002,2.968-6.804,7.221-7.043C171.743,320.234,174.356,320.354,176.964,320.352z">
                                                        </path>
                                                        <path fill-rule="evenodd" clip-rule="evenodd" fill="#293241"
                                                            d="M115.969,320.349c2.606-0.002,5.217-0.112,7.816,0.023  c4.152,0.219,6.88,2.797,7.225,6.611c0.366,4.049-1.949,7.669-6.074,7.986c-5.908,0.454-11.902,0.462-17.811,0.016  c-4.201-0.317-6.415-3.764-6.103-7.933c0.288-3.843,2.977-6.447,7.131-6.675C110.752,320.236,113.364,320.352,115.969,320.349z">
                                                        </path>
                                                    </g>
                                                    <path fill-rule="evenodd" clip-rule="evenodd" fill="#293241"
                                                        d="M187.676,212.25c0,6.627-5.373,12-12,12H56.361 c-6.627,0-12-5.373-12-12v-22.5c0-6.627,5.373-12,12-12h119.315c6.627,0,12,5.373,12,12V212.25z">
                                                    </path>
                                                    <g>
                                                        <path fill="#293241"
                                                            d="M291.718,127.335c-23.3,0-44.699,8.26-61.43,22.01v20.79c15.01-17.04,36.98-27.8,61.43-27.8  c45.17,0,81.92,36.74,81.92,81.91s-36.75,81.92-81.92,81.92c-24.439,0-46.42-10.76-61.43-27.8v20.779  c16.73,13.761,38.13,22.021,61.43,22.021c53.44,0,96.92-43.479,96.92-96.92C388.638,170.805,345.158,127.335,291.718,127.335z">
                                                        </path>
                                                    </g>
                                                    <g>
                                                        <path fill="#293241"
                                                            d="M289.723,243.598c0-2.606-0.923-4.638-2.768-6.094c-1.846-1.455-5.087-2.962-9.725-4.52  c-4.639-1.557-8.43-3.063-11.375-4.52c-9.581-4.705-14.371-11.172-14.371-19.398c0-4.096,1.193-7.71,3.58-10.842  c2.387-3.131,5.764-5.568,10.131-7.313c4.367-1.743,9.275-2.615,14.727-2.615c5.314,0,10.08,0.948,14.295,2.844  c4.215,1.896,7.49,4.596,9.826,8.1s3.504,7.508,3.504,12.01h-17.773c0-3.013-0.923-5.349-2.768-7.008  c-1.846-1.658-4.342-2.488-7.49-2.488c-3.183,0-5.696,0.703-7.541,2.107c-1.846,1.405-2.768,3.191-2.768,5.357  c0,1.896,1.016,3.614,3.047,5.154c2.031,1.541,5.603,3.132,10.715,4.773c5.111,1.643,9.31,3.411,12.594,5.307  c7.989,4.604,11.984,10.952,11.984,19.043c0,6.467-2.438,11.545-7.313,15.234c-4.875,3.69-11.562,5.535-20.059,5.535  c-5.992,0-11.418-1.074-16.275-3.225c-4.858-2.149-8.515-5.095-10.969-8.836c-2.455-3.74-3.682-8.049-3.682-12.924h17.875  c0,3.961,1.023,6.881,3.072,8.76c2.048,1.879,5.374,2.818,9.979,2.818c2.945,0,5.272-0.635,6.982-1.904  C288.867,247.686,289.723,245.9,289.723,243.598z">
                                                        </path>
                                                        <path fill="#293241"
                                                            d="M321.766,269.598h-12.137l25.238-80.285h12.188L321.766,269.598z">
                                                        </path>
                                                    </g>
                                                </svg>