<?xml version="1.0" encoding="utf-8"?>
<!-- Generator: Adobe Illustrator 28.3.0, SVG Export Plug-In . SVG Version: 6.00 Build 0)  -->
<svg version="1.1" id="Capa_1" xmlns="http://www.w3.org/2000/svg" xmlns:xlink="http://www.w3.org/1999/xlink" x="0px" y="0px"
	 viewBox="0 0 100 100" enable-background="new 0 0 100 100" xml:space="preserve">
<path fill="#FF6600" d="M94.171,28.093c0.273,1.562,0.115,3.163-0.31,4.691c-1.18,4.24,1.156,8.062,4.288,11.983
	c2.904,3.637,2.289,8.414-1.134,12.154c-2.807,3.066-3.797,6.123-2.903,10.305c1.157,5.41-0.597,9.284-5.119,11.541
	c-4.408,2.201-8.071,5.757-10.2,10.204c-2.218,4.633-6.225,6.391-11.93,5.178c-3.86-0.821-6.747,0.082-9.617,2.62
	c-4.776,4.224-9.603,4.327-14.332,0.186c-3.034-2.657-6.042-3.626-10.092-2.789c-5.566,1.149-9.357-0.538-11.616-5.091
	c-2.181-4.396-5.619-8.041-10.024-10.196c-4.853-2.374-6.528-6.298-5.29-12.191c0.764-3.635-0.055-6.406-2.448-9.158
	c-4.625-5.319-4.588-9.813,0.09-15.184c2.33-2.675,3.099-5.391,2.385-8.92c-1.423-7.035,0.84-10.938,7.717-13.319
	c3.39-1.174,5.331-3.212,6.504-6.556c2.394-6.822,6.33-9.103,13.348-7.656c3.538,0.729,6.22-0.1,8.886-2.439
	c4.611-4.045,8.786-4.544,13.289-1.475c3.897,2.657,8.608,3.907,13.309,3.544c5.379-0.415,8.869,2.14,10.738,7.774
	c1.186,3.575,3.27,5.707,6.85,6.918C91.117,21.76,93.48,24.143,94.171,28.093z M35.136,77.771c1.314-0.002,2.427-1.218,3.418-2.71
	c6.022-9.072,12.072-18.126,18.108-27.189c4.09-6.141,8.221-12.257,12.24-18.444c1.983-3.053,0.849-6.413-2.256-7.101
	c-2.495-0.553-4.039,0.735-5.347,2.71C53.444,36.889,45.54,48.707,37.657,60.54c-2.295,3.445-4.591,6.889-6.85,10.358
	c-1.012,1.554-1.157,3.193-0.161,4.838C31.522,77.182,32.845,77.797,35.136,77.771z M34.339,22.185
	c-6.798,0.019-12.091,5.331-12.127,12.169c-0.036,6.772,5.337,12.168,12.137,12.189c6.71,0.021,12.226-5.507,12.167-12.194
	C46.456,27.512,41.104,22.166,34.339,22.185z M77.72,65.767c0.035-6.84-5.227-12.244-11.997-12.322
	c-6.735-0.077-12.2,5.286-12.284,12.054c-0.084,6.772,5.233,12.211,12.017,12.29C72.227,77.869,77.685,72.518,77.72,65.767z"/>
<path fill="#FF6600" d="M37.736,34.093c0.002,2.203-1.505,3.705-3.435,3.59c-1.981-0.118-3.124-1.226-3.253-3.221
	c-0.125-1.948,1.336-3.496,3.276-3.44C36.449,31.082,37.553,32.289,37.736,34.093z"/>
<path fill="#FF6600" d="M65.486,68.987c-2.071-0.159-3.149-1.558-3.087-3.35c0.063-1.825,1.05-3.212,3.31-3.342
	c2.079,0.118,3.294,1.31,3.299,3.457C69.012,67.659,67.389,69.094,65.486,68.987z"/>
</svg>
