<?xml version="1.0" encoding="iso-8859-1"?>
<!-- Uploaded to: SVG Repo, www.svgrepo.com, Generator: SVG Repo Mixer Tools -->
<svg version="1.1" id="Layer_1" xmlns="http://www.w3.org/2000/svg" xmlns:xlink="http://www.w3.org/1999/xlink" 
	 viewBox="0 0 512 512" xml:space="preserve">
<rect x="12.8" y="172.8" style="fill:#EDEDED;" width="486.4" height="243.2"/>
<rect x="460.8" y="172.8" style="fill:#D8D8DA;" width="38.4" height="243.2"/>
<rect x="76.8" y="160" style="fill:#D1E5F5;" width="358.4" height="192"/>
<polygon style="fill:#B4D8F1;" points="115.2,160 307.2,352 435.2,352 435.2,160 "/>
<circle style="fill:#E07188;" cx="256" cy="358.4" r="96"/>
<path style="fill:#DC4161;" d="M256,262.4c-4.343,0-8.609,0.316-12.8,0.876c46.963,6.262,83.2,46.449,83.2,95.124
	s-36.237,88.864-83.2,95.124c4.191,0.558,8.457,0.876,12.8,0.876c53.019,0,96-42.981,96-96S309.019,262.4,256,262.4z"/>
<polygon style="fill:#80CB93;" points="512,134.4 499.2,147.2 12.8,147.2 0,134.4 76.8,57.6 435.2,57.6 "/>
<polygon style="fill:#6DC180;" points="435.2,57.6 409.6,57.6 486.4,134.4 473.6,147.2 499.2,147.2 512,134.4 "/>
<path style="fill:#95D5A7;" d="M0,172.8c0,35.346,28.654,64,64,64s64-28.654,64-64c0,35.346,28.654,64,64,64s64-28.654,64-64
	c0,35.346,28.654,64,64,64s64-28.654,64-64c0,35.346,28.654,64,64,64s64-28.654,64-64v-38.4H0V172.8z"/>
<path style="fill:#80CB93;" d="M486.4,134.4v38.4c0,30.962-21.988,56.787-51.2,62.717c4.136,0.84,8.416,1.283,12.8,1.283
	c35.346,0,64-28.654,64-64v-38.4H486.4z"/>
<g>
	<path style="fill:#F8F8F9;" d="M217.6,336c-8.823,0-16-7.177-16-16c0-8.823,7.177-16,16-16s16,7.177,16,16
		C233.6,328.823,226.423,336,217.6,336z"/>
	<path style="fill:#F8F8F9;" d="M294.4,412.8c-8.823,0-16-7.177-16-16c0-8.823,7.177-16,16-16s16,7.177,16,16
		C310.4,405.623,303.223,412.8,294.4,412.8z"/>
	<path style="fill:#F8F8F9;" d="M211.2,412.8c-2.456,0-4.914-0.937-6.788-2.812c-3.749-3.749-3.749-9.828,0-13.576l89.6-89.6
		c3.749-3.749,9.828-3.749,13.576,0c3.749,3.749,3.749,9.828,0,13.576l-89.6,89.6C216.114,411.863,213.656,412.8,211.2,412.8z"/>
</g>
<g>
	<path style="fill:#80CB93;" d="M307.2,235.517c4.136,0.84,8.416,1.283,12.8,1.283c35.346,0,64-28.654,64-64h-13.873
		c-6.285,0-11.58,4.575-12.631,10.771C353.084,209.606,332.948,230.29,307.2,235.517z"/>
	<path style="fill:#80CB93;" d="M179.2,235.517c4.136,0.84,8.416,1.283,12.8,1.283c35.346,0,64-28.654,64-64h-13.873
		c-6.285,0-11.58,4.575-12.631,10.771C225.084,209.606,204.948,230.29,179.2,235.517z"/>
	<path style="fill:#80CB93;" d="M51.2,235.517c4.136,0.84,8.416,1.283,12.8,1.283c35.346,0,64-28.654,64-64h-13.873
		c-6.285,0-11.58,4.575-12.631,10.771C97.084,209.606,76.948,230.29,51.2,235.517z"/>
</g>
</svg>