<svg xmlns="http://www.w3.org/2000/svg"
                                                    xmlns:xlink="http://www.w3.org/1999/xlink" id="Nautik_Delivery"
                                                    x="0px" y="0px" width="25px" height="25px"
                                                    viewBox="0 0 383.95 378.328" xml:space="preserve">
                                                    <path fill="#293241"
                                                        d="M383.37,312.817c-4.689-23.21-18.352-38.301-40.99-45.171c-2.51-0.76-3.529-1.979-3.32-4.5 c0.102-1.238,0.012-2.5,0.012-3.75c-0.012-25.068,0-50.148-0.012-75.22c0.672,0.24,1.361,0.45,2.063,0.64 c15.359,4.24,30.49-2.04,33.789-14.02c3.311-11.98-6.469-25.12-21.83-29.36c-4.82-1.33-9.619-1.63-14.039-1.03 c0.01-3.95,0-7.91,0-11.86c-0.01-8.47-4.281-12.76-12.641-12.77c-16.619-0.02-33.24-0.01-49.859-0.01c-1.881,0-3.74,0-5.53,0.73 c-4.99,2.02-7.841,7.03-6.99,12.37c0.91,5.67,5.171,9.47,11.261,9.53c12.239,0.13,24.489,0.13,36.74,0 c3.17-0.03,4.42,0.85,4.398,4.23c-0.109,24.87-0.1,49.741-0.02,74.61c0.01,2.898-0.811,4.061-3.869,4.54 c-22.191,3.47-41.361,13.159-57.102,29.13c-15.35,15.58-24.699,34.399-28.04,56.061c-0.479,3.141-1.761,3.83-4.601,3.789 c-10.25-0.119-20.5-0.159-30.74,0.021c-3.43,0.061-4.54-1.029-4.52-4.48c0.09-12,0.12-24,0.1-36c-0.38-9-0.55-13.81-13.21-13.81 H8.92c-6.09,0.56-8.59,3.72-8.92,8.31c0,16.66,0,61.041,0,61.041c3.09,5.89,8.01,8.01,14.56,7.699c6.85-0.33,13.74-0.029,20.61-0.09 c2.19-0.021,3.35,0.721,4.02,2.949c6.93,23.12,22.31,36.939,46.01,41.5c0.36,0.07,0.7,0.279,1.04,0.432h15 c7.57-1.701,15-3.771,21.69-7.932c12.54-7.789,21-18.721,25-32.92c0.89-3.141,2.35-4.09,5.49-4.068 c27.24,0.1,54.48,0.059,81.72,0.049c9.83,0,13.521-3.539,13.979-13.379c0.95-20.142,8.01-37.812,21.971-52.392 c11.271-11.761,25.09-19.229,41.07-22.63c2.898-0.609,4.459-0.21,4.25,3.352c-0.271,4.729-0.23,9.5-0.01,14.238 c0.148,3.07-1.08,4.29-3.951,5.189c-22.57,7.08-36.439,22.24-40.369,45.61c-4.871,29,13.688,56.431,42.34,63.5 c1.689,0.421,3.359,0.921,5.039,1.38h16.5c5.35-1.66,10.881-2.729,15.961-5.26c16.209-8.061,26.449-20.881,30.811-38.421 c0.359-1.449,0.811-2.88,1.221-4.31v-15.75C383.75,313.998,383.491,313.417,383.37,312.817z M93.74,355.658 c-18.16,0-33.43-15.191-33.6-33.421c-0.16-18.221,15.32-33.771,33.61-33.771c18.3,0.01,33.76,15.561,33.58,33.779 C127.16,340.487,111.9,355.658,93.74,355.658z M360.6,327.917c-2.229,13.949-13.6,25.039-27.83,27.14 c-16.17,2.399-31.6-6.851-36.67-21.96c-5.301-15.79,1.189-32.561,15.641-40.46c4.131-2.25,4.58-2.011,4.6,2.521 c0.01,4.37,0,8.739,0,13.12c0.01,4.619-0.068,9.239,0.031,13.859c0.139,6.61,5.029,11.36,11.469,11.28 c6.301-0.07,11.111-4.74,11.201-11.181c0.119-9.239,0.01-18.479,0.049-27.729c0.021-3.75,0.451-3.971,3.83-2.271 C356.02,298.817,363,312.908,360.6,327.917z">
                                                    </path>
                                                    <path id="silueta_galón" fill="#293241"
                                                        d="M162.296,89.16c0-0.19-0.01-0.38-0.02-0.57c-0.09-1.62-0.66-4.41-3.07-7.6 c-0.23-4.34-1.31-10.54-5.23-15.29c-1.9-2.96-4.97-4.99-6.98-6.32c-6.17-4.08-16.96-9.59-32.07-16.38l-1.28-0.45l0.01-0.02h-0.01 l0.02-0.87c0.05-2.68-0.98-5.27-2.86-7.19l-0.09-0.09c0.95-1.52,1.52-3.31,1.54-5.24l0.19-17.99c0.01-1.68-0.39-3.34-1.18-4.82 c-0.67-1.24-2.24-3.57-5.29-5.18c-1.44-0.75-3.04-1.15-4.66-1.15h-23c-1.27,0-2.54,0.25-3.73,0.72c-1.43,0.58-4.95,2.36-6.68,6.38 c-0.55,1.27-0.83,2.65-0.81,4.04l0.19,18.1c0.02,1.86,0.54,3.59,1.44,5.08c-0.17,0.18-0.35,0.36-0.51,0.56 c-1.82,2.17-2.68,4.71-2.31,7.41l-29.85,14.7c-1.77,0.86-12.32,6.49-15.19,19.57c-0.1,0.49-0.17,0.98-0.2,1.47 c-0.09,1.229-0.13,2.28-0.15,3.18c-1.56,1.78-3.26,4.84-3.06,9.59v9.29c0,0.17,0,0.34,0.01,0.51c0.13,2.51,1.03,5.58,3.05,8.09 l0.03,69.61c-1.45,1.76-3.09,4.65-3.09,8.669v10.791c0,1.021,0.16,2.039,0.47,3.021c0.43,1.35,1.2,3.229,2.53,4.959v8.09 c-1.38,1.83-3,4.92-3,9.32v4.479c0,1.062,0.2,10.451,7.19,18.111c1.79,2.149,8.44,9.129,20.15,10.779c0.46,0.061,0.92,0.1,1.39,0.1 h88.45c0.15,0,0.29-0.01,0.43-0.01c10.94-0.47,27.23-9.939,27.23-34.119h-0.01c-0.04-2.5-1.04-4.48-1.48-5.361 c-0.29-0.58-0.78-1.539-1.59-3.108v-8.472c1.68-2.079,2.86-5,2.83-8.868l0.24-9.421c0.01-0.39,0-0.779-0.03-1.17 c-0.22-2.35-1.19-5.37-3.21-8.12c-0.01-1.13,0-2.72,0.04-4.92v-0.2l-0.09-63.98c1.58-1.91,3.3-5.03,3.3-9.54V89.16L162.296,89.16z  M142.296,97.27c-1.86,2.18-2.65,4.43-2.9,5.28c-0.27,0.92-0.4,1.87-0.4,2.83l0.09,67.4c-0.17,9.54-0.22,13.13,3.12,16.53 c0.01,0.01,0.01,0.01,0.02,0.02l-0.13,5.021c-1.98,2.6-2.59,5.408-2.76,6.5c-0.08,0.51-0.12,1.02-0.12,1.54v14.069 c0,1.609,0.38,3.189,1.13,4.619c0.85,1.641,1.45,2.812,1.88,3.631c-0.66,9.75-5.62,11.59-8.05,11.91h-87.2 c-4.11-0.761-6.4-3.061-6.86-3.57c-0.24-0.34-0.3-0.369-0.64-0.729c-1.74-1.851-1.99-4.47-2.02-4.851v-2.76 c1.77-2.451,2.5-5.08,2.78-6.351c0.14-0.69,0.22-1.38,0.22-2.08v-13.01c0.05-3.86-1.61-6.84-3-8.649v-5.17 c1.62-2.14,2.4-4.36,2.71-5.47c0.25-0.89,0.38-1.81,0.38-2.73l-0.03-75.17c0.03-3.51-1.32-6.48-3.06-8.66v-4.93 c2.52-3.1,3.09-5.97,3.17-7.63c0.03-0.68,0-1.36-0.1-2.03c-0.03-0.5-0.01-1.57,0.04-2.61c0.52-1.71,1.52-2.99,2.42-3.85 c0.9-0.87,1.72-1.34,1.87-1.42l31.19-15.36c7.026-4.057,21.296-2.092,27.8,0.36c1.224,0.461,2.29,1.15,3.38,1.52 c22.05,9.93,28.57,14.34,30.22,15.63c0.33,0.47,0.69,0.91,1.09,1.33c0.5,0.92,0.84,3.65,0.69,5.57c-0.28,3.06,0.86,6.07,3.07,8.17 V97.27L142.296,97.27z">
                                                    </path>
                                                </svg>