<?xml version="1.0" encoding="utf-8"?>
<!-- Generator: Adobe Illustrator 28.3.0, SVG Export Plug-In . SVG Version: 6.00 Build 0)  -->
<svg version="1.1" id="Capa_1" xmlns="http://www.w3.org/2000/svg" xmlns:xlink="http://www.w3.org/1999/xlink" x="0px" y="0px"
	 viewBox="0 0 100 100" enable-background="new 0 0 100 100" xml:space="preserve">
<path fill="#FF6600" d="M97.01,56.92c-2.8,3.07-3.79,6.12-2.9,10.31c1.16,5.41-0.6,9.28-5.12,11.54c-4.41,2.2-8.07,5.75-10.2,10.2
	c-2.21,4.63-6.22,6.39-11.93,5.18c-3.86-0.82-6.74,0.08-9.61,2.62c-4.78,4.22-9.61,4.33-14.34,0.19c-3.03-2.66-6.04-3.63-10.09-2.79
	c-5.56,1.15-9.35-0.54-11.61-5.09c-2.18-4.4-5.62-8.05-10.03-10.2c-4.85-2.37-6.53-6.3-5.29-12.19c0.77-3.64-0.05-6.41-2.45-9.16
	c-4.62-5.32-4.58-9.81,0.09-15.18c2.33-2.68,3.1-5.39,2.39-8.92c-1.42-7.04,0.84-10.94,7.72-13.32c3.39-1.18,5.33-3.21,6.5-6.56
	c2.39-6.82,6.33-9.1,13.35-7.65c3.54,0.72,6.22-0.1,8.88-2.44c4.62-4.05,8.79-4.55,13.29-1.48c3.9,2.66,8.61,3.91,13.31,3.55
	c5.38-0.42,8.87,2.14,10.74,7.77c1.19,3.58,3.27,5.71,6.85,6.92c4.56,1.54,6.92,3.92,7.61,7.87c0.27,1.57,0.12,3.17-0.31,4.69
	c-1.18,4.24,1.16,8.07,4.29,11.99C101.05,48.4,100.44,53.18,97.01,56.92z"/>
<g>
	<path fill="#FFFFFF" d="M19.489,42.505L31.67,40.24v3.9L23.5,45.659v5.039l8.169-1.519v3.901L23.5,54.599v9.061l-4.011,0.745
		V42.505z"/>
	<path fill="#FFFFFF" d="M34.561,61.602v-21.9l6.901-1.283c5.073-0.943,8.052,1.593,8.052,6.123c0,2.64-1.268,5.335-3.628,7.064
		l4.306,7.09l-4.571,0.85l-3.451-6.048l-3.598,0.669v6.689L34.561,61.602z M41.109,49.944c3.303-0.614,4.394-2.647,4.394-4.808
		c0-2.25-1.328-3.412-4.394-2.842l-2.537,0.472v7.649L41.109,49.944z"/>
	<path fill="#FFFFFF" d="M52.375,36.389l12.771-2.375v3.9l-8.759,1.629v5.039l8.759-1.629v3.9l-8.759,1.629v5.161l8.759-1.629v3.899
		l-12.771,2.375V36.389z"/>
	<path fill="#FFFFFF" d="M67.977,33.488l12.771-2.375v3.9l-8.759,1.629v5.039l8.759-1.629v3.9l-8.759,1.629v5.161l8.759-1.629v3.9
		l-12.771,2.375V33.488z"/>
</g>
</svg>
